# xmcd CD database file generated by OrangeCD 6.2
#
# Track frame offsets:
#	150
#	12343
#	25029
#	41050
#	76167
#	100411
#	122923
#	138567
#
# Disc length: 2241 seconds
#
# Revision: 2
# Processed by: cddbd v1.5.2PL0 Copyright (c) Steve Scherf et al.
# Submitted via: OrangeCD 6.2
#
DISCID=6208bf08
DTITLE=Various Artist - Golden Moments City slang 1996/ 1997
DYEAR=1900
DGENRE=
TTITLE0=gallon drunk - to love somebody
TTITLE1=Sebadoh - ocean
TTITLE2=built to spill - untrustable
TTITLE3=trans am - carboforce
TTITLE4=eleventh dream day - insomnia
TTITLE5=Wuhling - Enno
TTITLE6=to rococo rot - mit dir in der gegend
TTITLE7=tortoise - taut and tame (l. Vibert mix)
EXTD=
EXTT0=
EXTT1=
EXTT2=
EXTT3=
EXTT4=
EXTT5=
EXTT6=
EXTT7=
PLAYORDER=
